<svg width="25" height="23" viewBox="0 0 25 23" fill="none" xmlns="http://www.w3.org/2000/svg">
<path d="M0 1.0125C0 0.451406 0.451406 0 1.0125 0H2.92359C4.06687 0 5.04563 0.818438 5.24813 1.94063L5.265 2.025H13.1625V6.33234L11.8547 5.02453C11.4581 4.62797 10.8169 4.62797 10.4245 5.02453C10.0322 5.42109 10.028 6.06234 10.4245 6.45469L13.462 9.49219C13.8586 9.88875 14.4998 9.88875 14.8922 9.49219L17.9297 6.45469C18.3263 6.05813 18.3263 5.41688 17.9297 5.02453C17.5331 4.63219 16.8919 4.62797 16.4995 5.02453L15.1917 6.33234V2.025H22.6758C23.5195 2.025 24.1566 2.79281 24.0005 3.62391L22.6884 10.6228C22.448 11.9011 21.3342 12.825 20.0348 12.825H7.22672L7.44187 14.0189C7.53047 14.4998 7.94813 14.85 8.4375 14.85H19.2375C19.7986 14.85 20.25 15.3014 20.25 15.8625C20.25 16.4236 19.7986 16.875 19.2375 16.875H8.44172C6.97359 16.875 5.71641 15.8245 5.45484 14.3817L3.25688 2.30344C3.22734 2.14313 3.08813 2.025 2.92359 2.025H1.0125C0.451406 2.025 0 1.57359 0 1.0125ZM6.75 20.25C6.75 19.132 7.65703 18.225 8.775 18.225C9.89297 18.225 10.8 19.132 10.8 20.25C10.8 21.368 9.89297 22.275 8.775 22.275C7.65703 22.275 6.75 21.368 6.75 20.25ZM16.2 20.25C16.2 19.132 17.107 18.225 18.225 18.225C19.343 18.225 20.25 19.132 20.25 20.25C20.25 21.368 19.343 22.275 18.225 22.275C17.107 22.275 16.2 21.368 16.2 20.25Z" fill="black"/>
</svg>
