<svg width="23" height="18" viewBox="0 0 23 18" fill="none" xmlns="http://www.w3.org/2000/svg">
<path d="M17.0209 1.929C15.7945 1.929 14.64 2.45546 13.9213 3.3436L12.376 5.25653C12.1738 5.50569 11.8504 5.65439 11.5045 5.65439C11.1586 5.65439 10.8352 5.50569 10.633 5.25653L9.08769 3.3436C8.36894 2.45546 7.21445 1.929 5.98809 1.929C3.87676 1.929 2.16523 3.46015 2.16523 5.34896C2.16523 7.35432 3.60273 9.30341 5.22441 11.0676C7.0707 13.077 9.33027 14.8453 10.8801 15.9022C11.0238 15.9987 11.235 16.071 11.509 16.071C11.783 16.071 11.9941 15.9987 12.1379 15.9022C13.6877 14.8453 15.9473 13.073 17.7936 11.0676C19.4197 9.30341 20.8527 7.35432 20.8527 5.34896C20.8527 3.46015 19.1412 1.929 17.0299 1.929H17.0209ZM12.1738 2.21433C13.2969 0.823845 15.1027 0 17.0209 0C20.3227 0 23 2.39518 23 5.34896C23 8.10583 21.0729 10.5291 19.4467 12.2934C17.4656 14.4474 15.0758 16.3161 13.4361 17.4334C12.8836 17.8111 12.2008 18 11.5 18C10.7992 18 10.1164 17.8111 9.56387 17.4334C7.92422 16.3161 5.53438 14.4474 3.55332 12.2974C1.92715 10.5332 0 8.10583 0 5.34896C0 2.39518 2.67734 0 5.9791 0C7.89727 0 9.70312 0.823845 10.8262 2.21433L11.5 3.04622L12.1738 2.21433Z" fill="#040404"/>
</svg>
