<svg width="51" height="38" viewBox="0 0 51 38" fill="none" xmlns="http://www.w3.org/2000/svg">
<g clip-path="url(#clip0_65_20)">
<rect width="51" height="38" fill="white"/>
<path d="M16.5204 5.4859H12.0016C11.4833 5.4859 11.2241 5.61547 11.2241 5.87462V36H6.12226C5.0209 36 4.29206 35.8218 3.93574 35.4655C3.61181 35.1092 3.44984 34.3642 3.44984 33.2304V3.63951C3.44984 2.50575 3.61181 1.76072 3.93574 1.4044C4.29206 1.04807 5.0209 0.869913 6.12226 0.869913H16.5204V5.4859ZM18.4639 0.869913H23.5658C24.6672 0.869913 25.3798 1.04807 25.7038 1.4044C26.0601 1.76072 26.2382 2.50575 26.2382 3.63951V33.1818C26.2382 34.3156 26.0601 35.0768 25.7038 35.4655C25.3474 35.8218 24.6348 36 23.5658 36H18.4639V19.7226H13.1677V15.1066H18.4639V0.869913Z" fill="black"/>
<path d="M34.3295 1.33953V15.1173C34.3295 15.6294 34.4415 15.9974 34.6655 16.2215C34.9215 16.4455 35.4656 16.5575 36.2977 16.5575H39.8502V21.1181H33.7534C31.9292 21.1181 30.457 20.9261 29.3368 20.542C28.2487 20.158 27.4326 19.4859 26.8885 18.5257C26.3764 17.5336 26.0404 16.4775 25.8804 15.3573C25.7524 14.2372 25.6883 12.733 25.6883 10.8448C25.6883 8.92451 25.7524 7.46832 25.8804 6.4762C26.0404 5.48407 26.3764 4.55595 26.8885 3.69184C27.4326 2.82772 28.2487 2.21965 29.3368 1.8676C30.457 1.51556 31.9292 1.33953 33.7534 1.33953H34.3295ZM41.7704 16.5575H42.3465C43.7227 16.5575 44.7788 16.5895 45.5149 16.6535C46.283 16.6855 47.0191 16.8295 47.7232 17.0856C48.4273 17.3096 48.9073 17.5816 49.1634 17.9017C49.4514 18.2217 49.7074 18.7818 49.9315 19.5819C50.1875 20.35 50.3315 21.1821 50.3635 22.0782C50.3955 22.9743 50.4115 24.2545 50.4115 25.9187C50.4115 27.5829 50.3955 28.9111 50.3635 29.9032C50.3315 30.8633 50.1875 31.7915 49.9315 32.6876C49.7074 33.5517 49.4514 34.1598 49.1634 34.5118C48.9073 34.8639 48.4273 35.1839 47.7232 35.4719C47.0191 35.728 46.283 35.888 45.5149 35.952C44.7788 35.984 43.7227 36 42.3465 36H41.7704V16.5575ZM26.3604 25.2946H32.4092C32.8573 25.2946 33.1293 25.3586 33.2253 25.4866C33.3213 25.6147 33.3693 25.8867 33.3693 26.3028V30.0472C33.3693 30.5593 33.4333 30.9273 33.5614 31.1514C33.7214 31.3434 34.0894 31.4394 34.6655 31.4394H39.8502V36H32.7933C30.457 36 28.6807 35.5999 27.4646 34.7998C26.2804 33.9997 25.6883 32.6076 25.6883 30.6233V26.3028C25.6883 25.6307 25.9124 25.2946 26.3604 25.2946ZM36.2497 1.29153H42.3465C44.6828 1.29153 46.443 1.69158 47.6272 2.49168C48.8433 3.29179 49.4514 4.68396 49.4514 6.66822V10.9888C49.4514 11.6609 49.2274 11.9969 48.7793 11.9969H42.7305C42.2825 11.9969 42.0104 11.9329 41.9144 11.8049C41.8184 11.6769 41.7704 11.4048 41.7704 10.9888V7.24429C41.7704 6.73223 41.6904 6.38018 41.5304 6.18816C41.4024 5.96413 41.0503 5.85212 40.4743 5.85212H36.2497V1.29153Z" fill="black"/>
</g>
<defs>
<clipPath id="clip0_65_20">
<rect width="51" height="38" fill="white"/>
</clipPath>
</defs>
</svg>
